<?xml version="1.0" encoding="UTF-8"?>
<svg xmlns="http://www.w3.org/2000/svg" width="1200" height="1200" viewBox="0 0 1200 1200" fill="none">
  
  <defs>
    <linearGradient id="bgGradient" x1="0%" y1="0%" x2="100%" y2="100%">
      <stop offset="0%" stop-color="#102033" />
      <stop offset="58%" stop-color="#123B66" />
      <stop offset="100%" stop-color="#0C1726" />
    </linearGradient>
    <pattern id="grid" width="64" height="64" patternUnits="userSpaceOnUse">
      <path d="M 64 0 L 0 0 0 64" fill="none" stroke="#D8E0EA" stroke-opacity="0.08" stroke-width="1"/>
    </pattern>
    <filter id="softGlow" x="-20%" y="-20%" width="140%" height="140%">
      <feGaussianBlur stdDeviation="30" />
    </filter>
  </defs>

  
  
  <rect width="1200" height="1200" rx="48" fill="url(#bgGradient)" />
  <rect x="44" y="44" width="1112" height="1112" rx="36" fill="url(#bgGradient)" stroke="#FFFFFF" stroke-opacity="0.08" />
  <rect width="1200" height="1200" rx="48" fill="url(#grid)" />
  <circle cx="980" cy="136" r="92" fill="#0B63CE" fill-opacity="0.12" filter="url(#softGlow)" />
  <rect x="88" y="88" rx="999" ry="999" width="176" height="42" fill="#FFFFFF" fill-opacity="0.1" />
  <text x="116" y="116" fill="#FFFFFF" fill-opacity="0.9" font-family="IBM Plex Sans, Segoe UI, Helvetica Neue, Arial, sans-serif" font-size="18" font-weight="700" letter-spacing="1.6">APOYO ADMINISTRATIVO</text>
  <rect x="88" y="1026" rx="28" ry="28" width="1024" height="90" fill="#102033" fill-opacity="0.5" stroke="#FFFFFF" stroke-opacity="0.08" />
  <text x="128" y="1078" fill="#FFFFFF" font-family="ui-monospace, SFMono-Regular, Menlo, Consolas, monospace" font-size="44" font-weight="700" letter-spacing="6">ADM</text>
  
  
  <rect x="200" y="210" width="178" height="360" rx="22" fill="#FFFFFF" fill-opacity="0.1" />
  <rect x="420" y="170" width="210" height="420" rx="22" fill="#0B63CE" fill-opacity="0.22" />
  <rect x="678" y="248" width="220" height="286" rx="22" fill="#FFFFFF" fill-opacity="0.1" />
  <path d="M 258 290 H 318 M 258 332 H 344 M 258 374 H 334 M 478 258 H 566 M 478 302 H 590 M 478 346 H 582 M 736 324 H 836 M 736 366 H 810" stroke="#FFFFFF" stroke-opacity="0.68" stroke-width="12" stroke-linecap="round"/>
  
  
</svg>
